# xmcd
# 
# Track frame offsets:
#     150
#     13615
#     24047
#     38040
#     53062
#     64655
#     74290
#     86187
#     99440
#     111502
# 
# Disc length: 1716
# 
# Revision: 43
# Processed by: cddbd v1.5.2PL0 Copyright (c) Steve Scherf et al.
# Submitted via: BonkEnc v1.0.8
# 
DISCID=7a06b20a
DTITLE=Weezer - Weezer (Green Album)
DYEAR=2001
DGENRE=Alternative Rock
TTITLE0=Don't Let Go
TTITLE1=Photograph
TTITLE2=Hash Pipe
TTITLE3=Island In The Sun
TTITLE4=Crab
TTITLE5=Knock-Down Drag-Out
TTITLE6=Smile
TTITLE7=Simple Pages
TTITLE8=Glorious Day
TTITLE9=O Girlfriend
EXTD=
EXTT0=
EXTT1=
EXTT2=
EXTT3=
EXTT4=
EXTT5=
EXTT6=
EXTT7=
EXTT8=
EXTT9=
PLAYORDER=
